%TF.GenerationSoftware,KiCad,Pcbnew,6.0.11+dfsg-1*%
%TF.CreationDate,2024-09-11T15:53:31+10:00*%
%TF.ProjectId,big_muff_pi_copy,6269675f-6d75-4666-965f-70695f636f70,V1*%
%TF.SameCoordinates,Original*%
%TF.FileFunction,Copper,L2,Bot*%
%TF.FilePolarity,Positive*%
%FSLAX46Y46*%
G04 Gerber Fmt 4.6, Leading zero omitted, Abs format (unit mm)*
G04 Created by KiCad (PCBNEW 6.0.11+dfsg-1) date 2024-09-11 15:53:31*
%MOMM*%
%LPD*%
G01*
G04 APERTURE LIST*
%TA.AperFunction,ComponentPad*%
%ADD10R,1.800000X1.800000*%
%TD*%
%TA.AperFunction,ComponentPad*%
%ADD11C,1.800000*%
%TD*%
%TA.AperFunction,ComponentPad*%
%ADD12C,1.600000*%
%TD*%
%TA.AperFunction,ComponentPad*%
%ADD13O,1.600000X1.600000*%
%TD*%
%TA.AperFunction,SMDPad,CuDef*%
%ADD14R,2.540000X3.510000*%
%TD*%
%TA.AperFunction,ViaPad*%
%ADD15C,0.800000*%
%TD*%
%TA.AperFunction,Conductor*%
%ADD16C,0.250000*%
%TD*%
G04 APERTURE END LIST*
D10*
%TO.P,D1,1,K*%
%TO.N,GND*%
X132302287Y-102482679D03*
D11*
%TO.P,D1,2,A*%
%TO.N,/led*%
X132302287Y-105022679D03*
%TD*%
D12*
%TO.P,R1,1*%
%TO.N,VCC*%
X159350000Y-105000000D03*
D13*
%TO.P,R1,2*%
%TO.N,/led*%
X146650000Y-105000000D03*
%TD*%
D14*
%TO.P,BT1,1,+*%
%TO.N,VCC*%
X161680000Y-90175000D03*
%TO.P,BT1,2,-*%
%TO.N,GND*%
X132320000Y-90175000D03*
%TD*%
D15*
%TO.N,VCC*%
X161000000Y-97000000D03*
%TD*%
D16*
%TO.N,VCC*%
X161680000Y-96320000D02*
X161000000Y-97000000D01*
X161680000Y-90175000D02*
X161680000Y-96320000D01*
%TO.N,GND*%
X132320000Y-90175000D02*
X132320000Y-102464966D01*
X132320000Y-102464966D02*
X132302287Y-102482679D01*
%TD*%
%TA.AperFunction,Conductor*%
%TO.N,GND*%
G36*
X169433621Y-78528502D02*
G01*
X169480114Y-78582158D01*
X169491500Y-78634500D01*
X169491500Y-109365500D01*
X169471498Y-109433621D01*
X169417842Y-109480114D01*
X169365500Y-109491500D01*
X165821533Y-109491500D01*
X165753412Y-109471498D01*
X165706919Y-109417842D01*
X165696815Y-109347568D01*
X165726309Y-109282988D01*
X165786035Y-109244604D01*
X165795121Y-109242299D01*
X165876191Y-109224919D01*
X166219355Y-109111428D01*
X166548256Y-108961540D01*
X166551193Y-108959796D01*
X166551199Y-108959793D01*
X166856110Y-108778749D01*
X166859044Y-108777007D01*
X166935018Y-108719964D01*
X167145354Y-108562041D01*
X167145363Y-108562034D01*
X167148086Y-108559989D01*
X167411999Y-108313023D01*
X167647696Y-108039000D01*
X167784106Y-107840522D01*
X167850490Y-107743934D01*
X167850495Y-107743927D01*
X167852420Y-107741125D01*
X167854032Y-107738131D01*
X167854037Y-107738123D01*
X168022154Y-107425893D01*
X168023776Y-107422881D01*
X168159760Y-107087993D01*
X168168300Y-107058015D01*
X168257847Y-106743655D01*
X168258781Y-106740377D01*
X168311057Y-106434551D01*
X168319109Y-106387447D01*
X168319109Y-106387445D01*
X168319681Y-106384100D01*
X168320052Y-106378043D01*
X168341635Y-106025160D01*
X168341747Y-106023330D01*
X168341796Y-106009357D01*
X168341822Y-106001820D01*
X168341822Y-106001809D01*
X168341828Y-106000000D01*
X168322282Y-105639085D01*
X168263871Y-105282391D01*
X168167279Y-104934093D01*
X168161625Y-104919883D01*
X168034896Y-104601428D01*
X168034892Y-104601420D01*
X168033636Y-104598263D01*
X168019849Y-104572223D01*
X167866100Y-104281841D01*
X167866098Y-104281837D01*
X167864506Y-104278831D01*
X167661866Y-103979534D01*
X167659661Y-103976934D01*
X167659655Y-103976926D01*
X167480535Y-103765716D01*
X167428088Y-103703872D01*
X167165905Y-103455070D01*
X166878386Y-103236039D01*
X166875474Y-103234282D01*
X166875469Y-103234279D01*
X166571815Y-103051103D01*
X166571806Y-103051098D01*
X166568893Y-103049341D01*
X166565803Y-103047907D01*
X166565798Y-103047904D01*
X166244143Y-102898597D01*
X166244141Y-102898596D01*
X166241047Y-102897160D01*
X166237812Y-102896065D01*
X166237807Y-102896063D01*
X165901919Y-102782371D01*
X165898684Y-102781276D01*
X165545807Y-102703046D01*
X165418774Y-102689021D01*
X165189927Y-102663756D01*
X165189922Y-102663756D01*
X165186546Y-102663383D01*
X165183147Y-102663377D01*
X165183146Y-102663377D01*
X165012755Y-102663080D01*
X164825102Y-102662752D01*
X164710738Y-102674974D01*
X164469088Y-102700798D01*
X164469080Y-102700799D01*
X164465705Y-102701160D01*
X164112557Y-102778159D01*
X163769791Y-102892847D01*
X163766698Y-102894269D01*
X163766697Y-102894270D01*
X163583193Y-102978672D01*
X163441416Y-103043883D01*
X163131273Y-103229499D01*
X162842991Y-103447525D01*
X162579942Y-103695410D01*
X162577730Y-103698000D01*
X162577729Y-103698001D01*
X162532494Y-103750964D01*
X162345203Y-103970254D01*
X162343275Y-103973081D01*
X162343273Y-103973083D01*
X162331130Y-103990884D01*
X162141520Y-104268843D01*
X161971275Y-104587682D01*
X161970000Y-104590854D01*
X161969998Y-104590858D01*
X161889202Y-104791846D01*
X161836461Y-104923043D01*
X161783291Y-105112202D01*
X161751746Y-105224428D01*
X161738654Y-105271003D01*
X161738093Y-105274356D01*
X161738092Y-105274360D01*
X161692368Y-105547601D01*
X161678999Y-105627490D01*
X161658192Y-105988335D01*
X161658783Y-106000000D01*
X161676479Y-106349316D01*
X161733644Y-106706211D01*
X161829020Y-107054845D01*
X161961489Y-107391139D01*
X162129504Y-107711159D01*
X162331097Y-108011162D01*
X162563912Y-108287639D01*
X162825224Y-108537354D01*
X163111977Y-108757387D01*
X163114890Y-108759158D01*
X163417902Y-108943393D01*
X163417907Y-108943396D01*
X163420817Y-108945165D01*
X163423905Y-108946611D01*
X163423904Y-108946611D01*
X163745045Y-109097045D01*
X163745055Y-109097049D01*
X163748129Y-109098489D01*
X163751347Y-109099591D01*
X163751350Y-109099592D01*
X164086863Y-109214464D01*
X164086871Y-109214466D01*
X164090086Y-109215567D01*
X164093416Y-109216317D01*
X164093418Y-109216318D01*
X164209965Y-109242583D01*
X164272022Y-109277071D01*
X164305582Y-109339636D01*
X164299989Y-109410412D01*
X164257020Y-109466928D01*
X164190316Y-109491242D01*
X164182265Y-109491500D01*
X125634500Y-109491500D01*
X125566379Y-109471498D01*
X125519886Y-109417842D01*
X125508500Y-109365500D01*
X125508500Y-104988148D01*
X130889382Y-104988148D01*
X130889679Y-104993301D01*
X130889679Y-104993304D01*
X130902416Y-105214208D01*
X130902714Y-105219376D01*
X130903851Y-105224422D01*
X130903852Y-105224428D01*
X130936028Y-105367202D01*
X130953633Y-105445321D01*
X130955575Y-105450103D01*
X130955576Y-105450107D01*
X131030946Y-105635721D01*
X131040771Y-105659916D01*
X131043470Y-105664320D01*
X131153762Y-105844300D01*
X131161788Y-105857398D01*
X131313434Y-106032463D01*
X131491636Y-106180409D01*
X131691609Y-106297263D01*
X131696434Y-106299105D01*
X131696435Y-106299106D01*
X131734124Y-106313498D01*
X131907981Y-106379888D01*
X131913047Y-106380919D01*
X131913048Y-106380919D01*
X131966133Y-106391719D01*
X132134943Y-106426064D01*
X132265611Y-106430855D01*
X132361236Y-106434362D01*
X132361240Y-106434362D01*
X132366400Y-106434551D01*
X132371520Y-106433895D01*
X132371522Y-106433895D01*
X132444557Y-106424539D01*
X132596134Y-106405121D01*
X132601082Y-106403636D01*
X132601089Y-106403635D01*
X132813034Y-106340048D01*
X132817977Y-106338565D01*
X132822611Y-106336295D01*
X133021336Y-106238941D01*
X133021339Y-106238939D01*
X133025971Y-106236670D01*
X133214530Y-106102173D01*
X133378590Y-105938684D01*
X133513745Y-105750596D01*
X133560928Y-105655129D01*
X133614071Y-105547601D01*
X133614072Y-105547599D01*
X133616365Y-105542959D01*
X133683695Y-105321350D01*
X133713927Y-105091720D01*
X133715614Y-105022679D01*
X133713749Y-105000000D01*
X145336502Y-105000000D01*
X145356457Y-105228087D01*
X145357881Y-105233400D01*
X145357881Y-105233402D01*
X145371912Y-105285764D01*
X145415716Y-105449243D01*
X145418039Y-105454224D01*
X145418039Y-105454225D01*
X145510151Y-105651762D01*
X145510154Y-105651767D01*
X145512477Y-105656749D01*
X145643802Y-105844300D01*
X145805700Y-106006198D01*
X145810208Y-106009355D01*
X145810211Y-106009357D01*
X145830167Y-106023330D01*
X145993251Y-106137523D01*
X145998233Y-106139846D01*
X145998238Y-106139849D01*
X146195775Y-106231961D01*
X146200757Y-106234284D01*
X146206065Y-106235706D01*
X146206067Y-106235707D01*
X146416598Y-106292119D01*
X146416600Y-106292119D01*
X146421913Y-106293543D01*
X146650000Y-106313498D01*
X146878087Y-106293543D01*
X146883400Y-106292119D01*
X146883402Y-106292119D01*
X147093933Y-106235707D01*
X147093935Y-106235706D01*
X147099243Y-106234284D01*
X147104225Y-106231961D01*
X147301762Y-106139849D01*
X147301767Y-106139846D01*
X147306749Y-106137523D01*
X147469833Y-106023330D01*
X147489789Y-106009357D01*
X147489792Y-106009355D01*
X147494300Y-106006198D01*
X147656198Y-105844300D01*
X147787523Y-105656749D01*
X147789846Y-105651767D01*
X147789849Y-105651762D01*
X147881961Y-105454225D01*
X147881961Y-105454224D01*
X147884284Y-105449243D01*
X147928089Y-105285764D01*
X147942119Y-105233402D01*
X147942119Y-105233400D01*
X147943543Y-105228087D01*
X147963498Y-105000000D01*
X158036502Y-105000000D01*
X158056457Y-105228087D01*
X158057881Y-105233400D01*
X158057881Y-105233402D01*
X158071912Y-105285764D01*
X158115716Y-105449243D01*
X158118039Y-105454224D01*
X158118039Y-105454225D01*
X158210151Y-105651762D01*
X158210154Y-105651767D01*
X158212477Y-105656749D01*
X158343802Y-105844300D01*
X158505700Y-106006198D01*
X158510208Y-106009355D01*
X158510211Y-106009357D01*
X158530167Y-106023330D01*
X158693251Y-106137523D01*
X158698233Y-106139846D01*
X158698238Y-106139849D01*
X158895775Y-106231961D01*
X158900757Y-106234284D01*
X158906065Y-106235706D01*
X158906067Y-106235707D01*
X159116598Y-106292119D01*
X159116600Y-106292119D01*
X159121913Y-106293543D01*
X159350000Y-106313498D01*
X159578087Y-106293543D01*
X159583400Y-106292119D01*
X159583402Y-106292119D01*
X159793933Y-106235707D01*
X159793935Y-106235706D01*
X159799243Y-106234284D01*
X159804225Y-106231961D01*
X160001762Y-106139849D01*
X160001767Y-106139846D01*
X160006749Y-106137523D01*
X160169833Y-106023330D01*
X160189789Y-106009357D01*
X160189792Y-106009355D01*
X160194300Y-106006198D01*
X160356198Y-105844300D01*
X160487523Y-105656749D01*
X160489846Y-105651767D01*
X160489849Y-105651762D01*
X160581961Y-105454225D01*
X160581961Y-105454224D01*
X160584284Y-105449243D01*
X160628089Y-105285764D01*
X160642119Y-105233402D01*
X160642119Y-105233400D01*
X160643543Y-105228087D01*
X160663498Y-105000000D01*
X160643543Y-104771913D01*
X160642119Y-104766598D01*
X160585707Y-104556067D01*
X160585706Y-104556065D01*
X160584284Y-104550757D01*
X160495122Y-104359547D01*
X160489849Y-104348238D01*
X160489846Y-104348233D01*
X160487523Y-104343251D01*
X160414098Y-104238389D01*
X160359357Y-104160211D01*
X160359355Y-104160208D01*
X160356198Y-104155700D01*
X160194300Y-103993802D01*
X160189792Y-103990645D01*
X160189789Y-103990643D01*
X160020373Y-103872017D01*
X160006749Y-103862477D01*
X160001767Y-103860154D01*
X160001762Y-103860151D01*
X159804225Y-103768039D01*
X159804224Y-103768039D01*
X159799243Y-103765716D01*
X159793935Y-103764294D01*
X159793933Y-103764293D01*
X159583402Y-103707881D01*
X159583400Y-103707881D01*
X159578087Y-103706457D01*
X159350000Y-103686502D01*
X159121913Y-103706457D01*
X159116600Y-103707881D01*
X159116598Y-103707881D01*
X158906067Y-103764293D01*
X158906065Y-103764294D01*
X158900757Y-103765716D01*
X158895776Y-103768039D01*
X158895775Y-103768039D01*
X158698238Y-103860151D01*
X158698233Y-103860154D01*
X158693251Y-103862477D01*
X158679627Y-103872017D01*
X158510211Y-103990643D01*
X158510208Y-103990645D01*
X158505700Y-103993802D01*
X158343802Y-104155700D01*
X158340645Y-104160208D01*
X158340643Y-104160211D01*
X158285902Y-104238389D01*
X158212477Y-104343251D01*
X158210154Y-104348233D01*
X158210151Y-104348238D01*
X158204878Y-104359547D01*
X158115716Y-104550757D01*
X158114294Y-104556065D01*
X158114293Y-104556067D01*
X158057881Y-104766598D01*
X158056457Y-104771913D01*
X158036502Y-105000000D01*
X147963498Y-105000000D01*
X147943543Y-104771913D01*
X147942119Y-104766598D01*
X147885707Y-104556067D01*
X147885706Y-104556065D01*
X147884284Y-104550757D01*
X147795122Y-104359547D01*
X147789849Y-104348238D01*
X147789846Y-104348233D01*
X147787523Y-104343251D01*
X147714098Y-104238389D01*
X147659357Y-104160211D01*
X147659355Y-104160208D01*
X147656198Y-104155700D01*
X147494300Y-103993802D01*
X147489792Y-103990645D01*
X147489789Y-103990643D01*
X147320373Y-103872017D01*
X147306749Y-103862477D01*
X147301767Y-103860154D01*
X147301762Y-103860151D01*
X147104225Y-103768039D01*
X147104224Y-103768039D01*
X147099243Y-103765716D01*
X147093935Y-103764294D01*
X147093933Y-103764293D01*
X146883402Y-103707881D01*
X146883400Y-103707881D01*
X146878087Y-103706457D01*
X146650000Y-103686502D01*
X146421913Y-103706457D01*
X146416600Y-103707881D01*
X146416598Y-103707881D01*
X146206067Y-103764293D01*
X146206065Y-103764294D01*
X146200757Y-103765716D01*
X146195776Y-103768039D01*
X146195775Y-103768039D01*
X145998238Y-103860151D01*
X145998233Y-103860154D01*
X145993251Y-103862477D01*
X145979627Y-103872017D01*
X145810211Y-103990643D01*
X145810208Y-103990645D01*
X145805700Y-103993802D01*
X145643802Y-104155700D01*
X145640645Y-104160208D01*
X145640643Y-104160211D01*
X145585902Y-104238389D01*
X145512477Y-104343251D01*
X145510154Y-104348233D01*
X145510151Y-104348238D01*
X145504878Y-104359547D01*
X145415716Y-104550757D01*
X145414294Y-104556065D01*
X145414293Y-104556067D01*
X145357881Y-104766598D01*
X145356457Y-104771913D01*
X145336502Y-105000000D01*
X133713749Y-105000000D01*
X133700598Y-104840037D01*
X133697060Y-104796997D01*
X133697059Y-104796991D01*
X133696636Y-104791846D01*
X133668424Y-104679529D01*
X133641471Y-104572223D01*
X133641470Y-104572219D01*
X133640212Y-104567212D01*
X133630891Y-104545775D01*
X133549917Y-104359547D01*
X133549915Y-104359544D01*
X133547857Y-104354810D01*
X133422051Y-104160344D01*
X133417826Y-104155700D01*
X133331773Y-104061130D01*
X133300721Y-103997284D01*
X133309116Y-103926785D01*
X133354292Y-103872017D01*
X133380736Y-103858348D01*
X133440341Y-103836003D01*
X133455936Y-103827465D01*
X133558011Y-103750964D01*
X133570572Y-103738403D01*
X133647073Y-103636328D01*
X133655611Y-103620733D01*
X133700765Y-103500285D01*
X133704392Y-103485030D01*
X133709918Y-103434165D01*
X133710287Y-103427351D01*
X133710287Y-102754794D01*
X133705812Y-102739555D01*
X133704422Y-102738350D01*
X133696739Y-102736679D01*
X130912403Y-102736679D01*
X130897164Y-102741154D01*
X130895959Y-102742544D01*
X130894288Y-102750227D01*
X130894288Y-103427348D01*
X130894658Y-103434169D01*
X130900182Y-103485031D01*
X130903808Y-103500283D01*
X130948963Y-103620733D01*
X130957501Y-103636328D01*
X131034002Y-103738403D01*
X131046563Y-103750964D01*
X131148638Y-103827465D01*
X131164233Y-103836003D01*
X131223827Y-103858344D01*
X131280591Y-103900986D01*
X131305291Y-103967547D01*
X131290083Y-104036896D01*
X131270691Y-104063377D01*
X131203926Y-104133243D01*
X131201012Y-104137515D01*
X131201011Y-104137516D01*
X131186030Y-104159478D01*
X131073406Y-104324578D01*
X130975889Y-104534660D01*
X130913994Y-104757848D01*
X130889382Y-104988148D01*
X125508500Y-104988148D01*
X125508500Y-102210564D01*
X130894287Y-102210564D01*
X130898762Y-102225803D01*
X130900152Y-102227008D01*
X130907835Y-102228679D01*
X132030172Y-102228679D01*
X132045411Y-102224204D01*
X132046616Y-102222814D01*
X132048287Y-102215131D01*
X132048287Y-102210564D01*
X132556287Y-102210564D01*
X132560762Y-102225803D01*
X132562152Y-102227008D01*
X132569835Y-102228679D01*
X133692171Y-102228679D01*
X133707410Y-102224204D01*
X133708615Y-102222814D01*
X133710286Y-102215131D01*
X133710286Y-101538010D01*
X133709916Y-101531189D01*
X133704392Y-101480327D01*
X133700766Y-101465075D01*
X133655611Y-101344625D01*
X133647073Y-101329030D01*
X133570572Y-101226955D01*
X133558011Y-101214394D01*
X133455936Y-101137893D01*
X133440341Y-101129355D01*
X133319893Y-101084201D01*
X133304638Y-101080574D01*
X133253773Y-101075048D01*
X133246959Y-101074679D01*
X132574402Y-101074679D01*
X132559163Y-101079154D01*
X132557958Y-101080544D01*
X132556287Y-101088227D01*
X132556287Y-102210564D01*
X132048287Y-102210564D01*
X132048287Y-101092795D01*
X132043812Y-101077556D01*
X132042422Y-101076351D01*
X132034739Y-101074680D01*
X131357618Y-101074680D01*
X131350797Y-101075050D01*
X131299935Y-101080574D01*
X131284683Y-101084200D01*
X131164233Y-101129355D01*
X131148638Y-101137893D01*
X131046563Y-101214394D01*
X131034002Y-101226955D01*
X130957501Y-101329030D01*
X130948963Y-101344625D01*
X130903809Y-101465073D01*
X130900182Y-101480328D01*
X130894656Y-101531193D01*
X130894287Y-101538007D01*
X130894287Y-102210564D01*
X125508500Y-102210564D01*
X125508500Y-91974669D01*
X130542001Y-91974669D01*
X130542371Y-91981490D01*
X130547895Y-92032352D01*
X130551521Y-92047604D01*
X130596676Y-92168054D01*
X130605214Y-92183649D01*
X130681715Y-92285724D01*
X130694276Y-92298285D01*
X130796351Y-92374786D01*
X130811946Y-92383324D01*
X130932394Y-92428478D01*
X130947649Y-92432105D01*
X130998514Y-92437631D01*
X131005328Y-92438000D01*
X132047885Y-92438000D01*
X132063124Y-92433525D01*
X132064329Y-92432135D01*
X132066000Y-92424452D01*
X132066000Y-92419884D01*
X132574000Y-92419884D01*
X132578475Y-92435123D01*
X132579865Y-92436328D01*
X132587548Y-92437999D01*
X133634669Y-92437999D01*
X133641490Y-92437629D01*
X133692352Y-92432105D01*
X133707604Y-92428479D01*
X133828054Y-92383324D01*
X133843649Y-92374786D01*
X133945724Y-92298285D01*
X133958285Y-92285724D01*
X134034786Y-92183649D01*
X134043324Y-92168054D01*
X134088478Y-92047606D01*
X134092105Y-92032351D01*
X134097631Y-91981486D01*
X134097813Y-91978134D01*
X159901500Y-91978134D01*
X159908255Y-92040316D01*
X159959385Y-92176705D01*
X160046739Y-92293261D01*
X160163295Y-92380615D01*
X160299684Y-92431745D01*
X160361866Y-92438500D01*
X160920500Y-92438500D01*
X160988621Y-92458502D01*
X161035114Y-92512158D01*
X161046500Y-92564500D01*
X161046500Y-95965500D01*
X161026498Y-96033621D01*
X160972842Y-96080114D01*
X160920500Y-96091500D01*
X160904513Y-96091500D01*
X160898061Y-96092872D01*
X160898056Y-96092872D01*
X160811113Y-96111353D01*
X160717712Y-96131206D01*
X160711682Y-96133891D01*
X160711681Y-96133891D01*
X160549278Y-96206197D01*
X160549276Y-96206198D01*
X160543248Y-96208882D01*
X160388747Y-96321134D01*
X160384326Y-96326044D01*
X160384325Y-96326045D01*
X160335946Y-96379776D01*
X160260960Y-96463056D01*
X160165473Y-96628444D01*
X160106458Y-96810072D01*
X160086496Y-97000000D01*
X160106458Y-97189928D01*
X160165473Y-97371556D01*
X160260960Y-97536944D01*
X160388747Y-97678866D01*
X160543248Y-97791118D01*
X160549276Y-97793802D01*
X160549278Y-97793803D01*
X160711681Y-97866109D01*
X160717712Y-97868794D01*
X160811112Y-97888647D01*
X160898056Y-97907128D01*
X160898061Y-97907128D01*
X160904513Y-97908500D01*
X161095487Y-97908500D01*
X161101939Y-97907128D01*
X161101944Y-97907128D01*
X161188888Y-97888647D01*
X161282288Y-97868794D01*
X161288319Y-97866109D01*
X161450722Y-97793803D01*
X161450724Y-97793802D01*
X161456752Y-97791118D01*
X161611253Y-97678866D01*
X161739040Y-97536944D01*
X161834527Y-97371556D01*
X161893542Y-97189928D01*
X161910907Y-97024706D01*
X161937920Y-96959050D01*
X161947122Y-96948782D01*
X162072247Y-96823657D01*
X162080537Y-96816113D01*
X162087018Y-96812000D01*
X162133659Y-96762332D01*
X162136413Y-96759491D01*
X162156134Y-96739770D01*
X162158612Y-96736575D01*
X162166318Y-96727553D01*
X162191158Y-96701101D01*
X162196586Y-96695321D01*
X162206346Y-96677568D01*
X162217199Y-96661045D01*
X162224753Y-96651306D01*
X162229613Y-96645041D01*
X162247176Y-96604457D01*
X162252383Y-96593827D01*
X162273695Y-96555060D01*
X162275666Y-96547383D01*
X162275668Y-96547378D01*
X162278732Y-96535442D01*
X162285138Y-96516730D01*
X162290033Y-96505419D01*
X162293181Y-96498145D01*
X162294421Y-96490317D01*
X162294423Y-96490310D01*
X162300099Y-96454476D01*
X162302505Y-96442856D01*
X162311528Y-96407711D01*
X162311528Y-96407710D01*
X162313500Y-96400030D01*
X162313500Y-96379776D01*
X162315051Y-96360065D01*
X162316980Y-96347886D01*
X162318220Y-96340057D01*
X162314059Y-96296038D01*
X162313500Y-96284181D01*
X162313500Y-92564500D01*
X162333502Y-92496379D01*
X162387158Y-92449886D01*
X162439500Y-92438500D01*
X162998134Y-92438500D01*
X163060316Y-92431745D01*
X163196705Y-92380615D01*
X163313261Y-92293261D01*
X163400615Y-92176705D01*
X163451745Y-92040316D01*
X163458500Y-91978134D01*
X163458500Y-88371866D01*
X163451745Y-88309684D01*
X163400615Y-88173295D01*
X163313261Y-88056739D01*
X163196705Y-87969385D01*
X163060316Y-87918255D01*
X162998134Y-87911500D01*
X160361866Y-87911500D01*
X160299684Y-87918255D01*
X160163295Y-87969385D01*
X160046739Y-88056739D01*
X159959385Y-88173295D01*
X159908255Y-88309684D01*
X159901500Y-88371866D01*
X159901500Y-91978134D01*
X134097813Y-91978134D01*
X134098000Y-91974672D01*
X134098000Y-90447115D01*
X134093525Y-90431876D01*
X134092135Y-90430671D01*
X134084452Y-90429000D01*
X132592115Y-90429000D01*
X132576876Y-90433475D01*
X132575671Y-90434865D01*
X132574000Y-90442548D01*
X132574000Y-92419884D01*
X132066000Y-92419884D01*
X132066000Y-90447115D01*
X132061525Y-90431876D01*
X132060135Y-90430671D01*
X132052452Y-90429000D01*
X130560116Y-90429000D01*
X130544877Y-90433475D01*
X130543672Y-90434865D01*
X130542001Y-90442548D01*
X130542001Y-91974669D01*
X125508500Y-91974669D01*
X125508500Y-89902885D01*
X130542000Y-89902885D01*
X130546475Y-89918124D01*
X130547865Y-89919329D01*
X130555548Y-89921000D01*
X132047885Y-89921000D01*
X132063124Y-89916525D01*
X132064329Y-89915135D01*
X132066000Y-89907452D01*
X132066000Y-89902885D01*
X132574000Y-89902885D01*
X132578475Y-89918124D01*
X132579865Y-89919329D01*
X132587548Y-89921000D01*
X134079884Y-89921000D01*
X134095123Y-89916525D01*
X134096328Y-89915135D01*
X134097999Y-89907452D01*
X134097999Y-88375331D01*
X134097629Y-88368510D01*
X134092105Y-88317648D01*
X134088479Y-88302396D01*
X134043324Y-88181946D01*
X134034786Y-88166351D01*
X133958285Y-88064276D01*
X133945724Y-88051715D01*
X133843649Y-87975214D01*
X133828054Y-87966676D01*
X133707606Y-87921522D01*
X133692351Y-87917895D01*
X133641486Y-87912369D01*
X133634672Y-87912000D01*
X132592115Y-87912000D01*
X132576876Y-87916475D01*
X132575671Y-87917865D01*
X132574000Y-87925548D01*
X132574000Y-89902885D01*
X132066000Y-89902885D01*
X132066000Y-87930116D01*
X132061525Y-87914877D01*
X132060135Y-87913672D01*
X132052452Y-87912001D01*
X131005331Y-87912001D01*
X130998510Y-87912371D01*
X130947648Y-87917895D01*
X130932396Y-87921521D01*
X130811946Y-87966676D01*
X130796351Y-87975214D01*
X130694276Y-88051715D01*
X130681715Y-88064276D01*
X130605214Y-88166351D01*
X130596676Y-88181946D01*
X130551522Y-88302394D01*
X130547895Y-88317649D01*
X130542369Y-88368514D01*
X130542000Y-88375328D01*
X130542000Y-89902885D01*
X125508500Y-89902885D01*
X125508500Y-78634500D01*
X125528502Y-78566379D01*
X125582158Y-78519886D01*
X125634500Y-78508500D01*
X169365500Y-78508500D01*
X169433621Y-78528502D01*
G37*
%TD.AperFunction*%
%TD*%
M02*
