%TF.GenerationSoftware,KiCad,Pcbnew,6.0.11+dfsg-1*%
%TF.CreationDate,2024-09-11T15:53:32+10:00*%
%TF.ProjectId,big_muff_pi_copy,6269675f-6d75-4666-965f-70695f636f70,V1*%
%TF.SameCoordinates,Original*%
%TF.FileFunction,Legend,Top*%
%TF.FilePolarity,Positive*%
%FSLAX46Y46*%
G04 Gerber Fmt 4.6, Leading zero omitted, Abs format (unit mm)*
G04 Created by KiCad (PCBNEW 6.0.11+dfsg-1) date 2024-09-11 15:53:32*
%MOMM*%
%LPD*%
G01*
G04 APERTURE LIST*
%ADD10C,0.150000*%
%ADD11C,0.120000*%
G04 APERTURE END LIST*
D10*
%TO.C,D1*%
X136714667Y-104490774D02*
X135714667Y-104490774D01*
X135714667Y-104252679D01*
X135762287Y-104109821D01*
X135857525Y-104014583D01*
X135952763Y-103966964D01*
X136143239Y-103919345D01*
X136286096Y-103919345D01*
X136476572Y-103966964D01*
X136571810Y-104014583D01*
X136667048Y-104109821D01*
X136714667Y-104252679D01*
X136714667Y-104490774D01*
X136714667Y-102966964D02*
X136714667Y-103538393D01*
X136714667Y-103252679D02*
X135714667Y-103252679D01*
X135857525Y-103347917D01*
X135952763Y-103443155D01*
X136000382Y-103538393D01*
%TO.C,R1*%
X152833333Y-108172380D02*
X152500000Y-107696190D01*
X152261904Y-108172380D02*
X152261904Y-107172380D01*
X152642857Y-107172380D01*
X152738095Y-107220000D01*
X152785714Y-107267619D01*
X152833333Y-107362857D01*
X152833333Y-107505714D01*
X152785714Y-107600952D01*
X152738095Y-107648571D01*
X152642857Y-107696190D01*
X152261904Y-107696190D01*
X153785714Y-108172380D02*
X153214285Y-108172380D01*
X153500000Y-108172380D02*
X153500000Y-107172380D01*
X153404761Y-107315238D01*
X153309523Y-107410476D01*
X153214285Y-107458095D01*
D11*
%TO.C,D1*%
X133847287Y-101192679D02*
X130757287Y-101192679D01*
X132301825Y-106742679D02*
G75*
G03*
X133847117Y-101192679I462J2990000D01*
G01*
X130757457Y-101192679D02*
G75*
G03*
X132302749Y-106742679I1544830J-2560000D01*
G01*
X134802287Y-103752679D02*
G75*
G03*
X134802287Y-103752679I-2500000J0D01*
G01*
%TO.C,R1*%
X148380000Y-103280000D02*
X148380000Y-106720000D01*
X157620000Y-106720000D02*
X157620000Y-103280000D01*
X147690000Y-105000000D02*
X148380000Y-105000000D01*
X157620000Y-103280000D02*
X148380000Y-103280000D01*
X158310000Y-105000000D02*
X157620000Y-105000000D01*
X148380000Y-106720000D02*
X157620000Y-106720000D01*
%TD*%
M02*
