%TF.GenerationSoftware,KiCad,Pcbnew,6.0.11+dfsg-1*%
%TF.CreationDate,2024-09-11T15:53:32+10:00*%
%TF.ProjectId,big_muff_pi_copy,6269675f-6d75-4666-965f-70695f636f70,V1*%
%TF.SameCoordinates,Original*%
%TF.FileFunction,Legend,Bot*%
%TF.FilePolarity,Positive*%
%FSLAX46Y46*%
G04 Gerber Fmt 4.6, Leading zero omitted, Abs format (unit mm)*
G04 Created by KiCad (PCBNEW 6.0.11+dfsg-1) date 2024-09-11 15:53:32*
%MOMM*%
%LPD*%
G01*
G04 APERTURE LIST*
%ADD10C,0.150000*%
%ADD11C,0.120000*%
G04 APERTURE END LIST*
D10*
%TO.C,BT1*%
X147785714Y-97723571D02*
X147642857Y-97771190D01*
X147595238Y-97818809D01*
X147547619Y-97914047D01*
X147547619Y-98056904D01*
X147595238Y-98152142D01*
X147642857Y-98199761D01*
X147738095Y-98247380D01*
X148119047Y-98247380D01*
X148119047Y-97247380D01*
X147785714Y-97247380D01*
X147690476Y-97295000D01*
X147642857Y-97342619D01*
X147595238Y-97437857D01*
X147595238Y-97533095D01*
X147642857Y-97628333D01*
X147690476Y-97675952D01*
X147785714Y-97723571D01*
X148119047Y-97723571D01*
X147261904Y-97247380D02*
X146690476Y-97247380D01*
X146976190Y-98247380D02*
X146976190Y-97247380D01*
X145833333Y-98247380D02*
X146404761Y-98247380D01*
X146119047Y-98247380D02*
X146119047Y-97247380D01*
X146214285Y-97390238D01*
X146309523Y-97485476D01*
X146404761Y-97533095D01*
D11*
X161310000Y-86565000D02*
X157692000Y-86565000D01*
X132690000Y-92075000D02*
X132690000Y-93785000D01*
X136308000Y-86565000D02*
X132690000Y-86565000D01*
X157692000Y-93785000D02*
X161310000Y-93785000D01*
X154847300Y-82065000D02*
X139152700Y-82065000D01*
X161310000Y-88275000D02*
X161310000Y-86565000D01*
X132690000Y-88275000D02*
X132690000Y-86565000D01*
X148660000Y-96085000D02*
X150860000Y-98285000D01*
X145340000Y-96085000D02*
X143140000Y-98285000D01*
X132690000Y-93785000D02*
X136308000Y-93785000D01*
X139152700Y-98285000D02*
X143140000Y-98285000D01*
X150860000Y-98285000D02*
X154847300Y-98285000D01*
X145340000Y-96085000D02*
X148660000Y-96085000D01*
X161310000Y-92075000D02*
X161310000Y-93785000D01*
X157691999Y-86565000D02*
G75*
G03*
X154845371Y-82063211I-10692019J-3610010D01*
G01*
X136308000Y-93785000D02*
G75*
G03*
X139154629Y-98286789I10692020J3610012D01*
G01*
X154845371Y-98286789D02*
G75*
G03*
X157692000Y-93785000I-7845350J8111775D01*
G01*
X139154629Y-82063211D02*
G75*
G03*
X136308000Y-86565000I7845391J-8111801D01*
G01*
%TD*%
M02*
